<svg xmlns="http://www.w3.org/2000/svg" xmlns:xlink="http://www.w3.org/1999/xlink" width="250" zoomAndPan="magnify" viewBox="0 0 375 374.999991" height="250" preserveAspectRatio="xMidYMid meet" version="1.0"><defs><g/></defs><g box-shadow="0 0 5px #333" fill="#b7b7a4" fill-opacity="1"><g transform="translate(133.359855, 202.420289)"><g><path d="M 5.160156 0 L 51.097656 0 L 51.097656 -2.066406 L 43.183594 -2.066406 C 39.914062 -2.066406 34.410156 -3.613281 34.410156 -13.074219 L 34.410156 -86.019531 L 54.363281 -86.019531 C 74.839844 -52.472656 84.128906 -36.300781 103.570312 -5.332031 C 106.664062 -0.515625 109.417969 0 113.375 0 C 118.535156 0 129.03125 0 133.847656 0 L 133.847656 -2.066406 C 122.664062 -2.066406 115.957031 -6.539062 110.621094 -14.796875 C 94.105469 -40.257812 83.785156 -58.148438 66.753906 -86.019531 C 87.054688 -86.882812 110.105469 -102.707031 110.105469 -129.03125 C 110.105469 -159.828125 85.332031 -172.042969 64.515625 -172.042969 L 5.160156 -172.042969 L 5.160156 -169.976562 L 13.074219 -169.976562 C 16.34375 -169.976562 21.847656 -168.429688 21.847656 -158.964844 L 21.847656 -13.074219 C 21.847656 -3.613281 16.34375 -2.066406 13.074219 -2.066406 L 5.160156 -2.066406 Z M 34.410156 -170.148438 C 43.871094 -170.320312 43.527344 -170.320312 55.914062 -170.320312 C 84.472656 -170.320312 97.203125 -148.300781 97.203125 -129.03125 C 97.203125 -106.320312 84.300781 -88.085938 55.570312 -88.085938 L 34.410156 -88.085938 Z M 34.410156 -170.148438 "/></g></g></g><g fill="#b7b7a4" fill-opacity="1"><g transform="translate(58.336209, 299.816555)"><g><path d="M 5.730469 0 L 89.015625 0 C 112.894531 0 134.859375 -19.292969 134.859375 -47.945312 C 134.859375 -75.070312 114.230469 -95.703125 86.914062 -97.804688 C 105.445312 -103.535156 122.253906 -119.578125 122.253906 -143.265625 C 122.253906 -177.457031 94.746094 -191.019531 71.632812 -191.019531 L 5.730469 -191.019531 L 5.730469 -188.730469 L 14.519531 -188.730469 C 18.148438 -188.730469 24.257812 -187.011719 24.257812 -176.503906 L 24.257812 -14.519531 C 24.257812 -4.011719 18.148438 -2.292969 14.519531 -2.292969 L 5.730469 -2.292969 Z M 38.203125 -95.511719 L 67.621094 -95.511719 C 108.117188 -95.511719 121.871094 -65.710938 121.871094 -47.753906 C 121.871094 -29.800781 110.984375 -2.292969 70.488281 -2.292969 L 38.203125 -2.292969 Z M 62.082031 -188.730469 C 93.792969 -188.730469 107.925781 -164.660156 107.925781 -143.265625 C 107.925781 -118.050781 93.601562 -97.804688 61.699219 -97.804688 L 38.203125 -97.804688 L 38.203125 -188.730469 Z M 62.082031 -188.730469 "/></g></g></g><g fill="#2b2b2b" fill-opacity="1"><g transform="translate(195.955144, 237.204868)"><g><path d="M 1.90625 0.21875 C 1.269531 0.21875 0.953125 0.0351562 0.953125 -0.328125 C 0.953125 -0.609375 1.128906 -0.75 1.484375 -0.75 L 2.1875 -0.671875 C 2.71875 -0.671875 3.085938 -0.925781 3.296875 -1.4375 C 3.515625 -2 3.625 -3.066406 3.625 -4.640625 L 3.625 -14.96875 C 3.625 -16.601562 3.539062 -17.625 3.375 -18.03125 C 3.207031 -18.445312 3.023438 -18.703125 2.828125 -18.796875 C 2.640625 -18.898438 2.398438 -18.953125 2.109375 -18.953125 L 1.484375 -18.875 C 1.128906 -18.875 0.953125 -19.015625 0.953125 -19.296875 C 0.953125 -19.660156 1.21875 -19.84375 1.75 -19.84375 C 2.289062 -19.84375 2.757812 -19.800781 3.15625 -19.71875 C 3.5625 -19.644531 3.945312 -19.609375 4.3125 -19.609375 C 4.675781 -19.609375 5.007812 -19.625 5.3125 -19.65625 C 5.613281 -19.695312 5.929688 -19.738281 6.265625 -19.78125 C 7.203125 -19.90625 8.019531 -19.96875 8.71875 -19.96875 C 9.425781 -19.96875 10.128906 -19.863281 10.828125 -19.65625 C 11.535156 -19.457031 12.144531 -19.164062 12.65625 -18.78125 C 13.726562 -18 14.265625 -16.976562 14.265625 -15.71875 C 14.265625 -14.050781 13.554688 -12.632812 12.140625 -11.46875 C 13.359375 -11.125 14.382812 -10.441406 15.21875 -9.421875 C 16.082031 -8.359375 16.515625 -7.175781 16.515625 -5.875 C 16.515625 -4.019531 15.898438 -2.515625 14.671875 -1.359375 C 13.441406 -0.210938 11.832031 0.359375 9.84375 0.359375 C 9.21875 0.359375 8.492188 0.316406 7.671875 0.234375 C 6.054688 0.078125 4.972656 0 4.421875 0 Z M 5.921875 -11.75 C 7.015625 -11.644531 7.90625 -11.59375 8.59375 -11.59375 C 9.570312 -11.59375 10.171875 -11.601562 10.390625 -11.625 C 10.617188 -11.65625 10.828125 -11.753906 11.015625 -11.921875 C 11.203125 -12.085938 11.375 -12.300781 11.53125 -12.5625 C 11.894531 -13.175781 12.078125 -13.820312 12.078125 -14.5 C 12.078125 -15.1875 11.957031 -15.789062 11.71875 -16.3125 C 11.488281 -16.832031 11.171875 -17.273438 10.765625 -17.640625 C 9.953125 -18.390625 8.925781 -18.765625 7.6875 -18.765625 C 7.09375 -18.765625 6.53125 -18.660156 6 -18.453125 C 5.96875 -17.960938 5.945312 -17.59375 5.9375 -17.34375 C 5.9375 -17.09375 5.929688 -16.867188 5.921875 -16.671875 C 5.921875 -16.484375 5.921875 -16.3125 5.921875 -16.15625 Z M 12.75 -8.765625 C 12.34375 -9.273438 11.84375 -9.679688 11.25 -9.984375 C 10.664062 -10.296875 10.109375 -10.453125 9.578125 -10.453125 L 7.984375 -10.453125 C 7.441406 -10.453125 6.753906 -10.425781 5.921875 -10.375 L 5.921875 -6.75 C 5.921875 -4.5625 5.957031 -2.878906 6.03125 -1.703125 C 6.894531 -1.148438 8.007812 -0.875 9.375 -0.875 C 11.550781 -0.875 12.984375 -1.65625 13.671875 -3.21875 C 13.890625 -3.75 14 -4.363281 14 -5.0625 C 14 -5.757812 13.890625 -6.425781 13.671875 -7.0625 C 13.460938 -7.695312 13.15625 -8.265625 12.75 -8.765625 Z M 12.75 -8.765625 "/></g></g></g><g fill="#2b2b2b" fill-opacity="1"><g transform="translate(223.139574, 237.204868)"><g><path d="M 1.78125 0.21875 C 1.132812 0.21875 0.8125 0.0351562 0.8125 -0.328125 C 0.8125 -0.609375 0.992188 -0.75 1.359375 -0.75 L 2.09375 -0.671875 C 2.3125 -0.671875 2.492188 -0.710938 2.640625 -0.796875 C 2.796875 -0.878906 2.910156 -1.054688 2.984375 -1.328125 C 3.140625 -1.828125 3.21875 -2.929688 3.21875 -4.640625 L 3.21875 -15.546875 C 3.21875 -17.160156 2.878906 -18.015625 2.203125 -18.109375 C 1.722656 -18.191406 1.484375 -18.351562 1.484375 -18.59375 C 1.484375 -18.820312 1.710938 -18.984375 2.171875 -19.078125 C 2.628906 -19.171875 3.039062 -19.285156 3.40625 -19.421875 C 3.78125 -19.566406 4.109375 -19.703125 4.390625 -19.828125 C 4.671875 -19.960938 4.910156 -20.078125 5.109375 -20.171875 C 5.316406 -20.273438 5.460938 -20.328125 5.546875 -20.328125 C 5.765625 -20.328125 5.875 -20.210938 5.875 -19.984375 C 5.875 -19.878906 5.859375 -19.769531 5.828125 -19.65625 C 5.617188 -19.125 5.507812 -18.453125 5.5 -17.640625 C 5.488281 -16.835938 5.484375 -16.175781 5.484375 -15.65625 L 5.484375 -4.640625 C 5.484375 -2.929688 5.539062 -1.882812 5.65625 -1.5 C 5.78125 -1.113281 5.914062 -0.878906 6.0625 -0.796875 C 6.207031 -0.710938 6.390625 -0.671875 6.609375 -0.671875 L 7.34375 -0.75 C 7.707031 -0.75 7.890625 -0.609375 7.890625 -0.328125 C 7.890625 0.0351562 7.566406 0.21875 6.921875 0.21875 C 6.546875 0.21875 6.160156 0.179688 5.765625 0.109375 C 5.367188 0.0351562 4.910156 0 4.390625 0 C 3.867188 0 3.394531 0.0351562 2.96875 0.109375 C 2.550781 0.179688 2.15625 0.21875 1.78125 0.21875 Z M 1.78125 0.21875 "/></g></g></g><g fill="#2b2b2b" fill-opacity="1"><g transform="translate(240.975409, 237.204868)"><g><path d="M 5.984375 -18.15625 C 5.984375 -17.75 5.84375 -17.398438 5.5625 -17.109375 C 5.289062 -16.828125 4.914062 -16.6875 4.4375 -16.6875 C 3.96875 -16.6875 3.601562 -16.820312 3.34375 -17.09375 C 3.082031 -17.375 2.953125 -17.675781 2.953125 -18 C 2.953125 -18.332031 2.992188 -18.582031 3.078125 -18.75 C 3.171875 -18.925781 3.285156 -19.082031 3.421875 -19.21875 C 3.722656 -19.476562 4.09375 -19.609375 4.53125 -19.609375 C 4.96875 -19.609375 5.316406 -19.46875 5.578125 -19.1875 C 5.847656 -18.914062 5.984375 -18.570312 5.984375 -18.15625 Z M 1.953125 0.21875 C 1.304688 0.21875 0.984375 0.0351562 0.984375 -0.328125 C 0.984375 -0.609375 1.160156 -0.75 1.515625 -0.75 L 2.25 -0.671875 C 2.476562 -0.671875 2.664062 -0.710938 2.8125 -0.796875 C 2.957031 -0.878906 3.070312 -1.054688 3.15625 -1.328125 C 3.3125 -1.816406 3.390625 -2.921875 3.390625 -4.640625 L 3.390625 -9.046875 C 3.390625 -10.003906 3.320312 -10.613281 3.1875 -10.875 C 3.0625 -11.132812 2.914062 -11.3125 2.75 -11.40625 C 2.582031 -11.5 2.304688 -11.570312 1.921875 -11.625 C 1.535156 -11.675781 1.34375 -11.832031 1.34375 -12.09375 C 1.34375 -12.3125 1.597656 -12.472656 2.109375 -12.578125 C 3.265625 -12.816406 4.0625 -13.054688 4.5 -13.296875 C 5.113281 -13.640625 5.53125 -13.8125 5.75 -13.8125 C 5.976562 -13.8125 6.09375 -13.703125 6.09375 -13.484375 C 6.09375 -13.367188 6.070312 -13.253906 6.03125 -13.140625 C 5.800781 -12.460938 5.6875 -11.132812 5.6875 -9.15625 L 5.6875 -4.640625 C 5.6875 -2.921875 5.75 -1.867188 5.875 -1.484375 C 6 -1.109375 6.132812 -0.878906 6.28125 -0.796875 C 6.425781 -0.710938 6.609375 -0.671875 6.828125 -0.671875 L 7.5625 -0.75 C 7.925781 -0.75 8.109375 -0.609375 8.109375 -0.328125 C 8.109375 0.0351562 7.78125 0.21875 7.125 0.21875 C 6.75 0.21875 6.347656 0.179688 5.921875 0.109375 C 5.503906 0.0351562 5.050781 0 4.5625 0 C 4.070312 0 3.609375 0.0351562 3.171875 0.109375 C 2.734375 0.179688 2.328125 0.21875 1.953125 0.21875 Z M 1.953125 0.21875 "/></g></g></g><g fill="#2b2b2b" fill-opacity="1"><g transform="translate(258.738108, 237.204868)"><g><path d="M 2.671875 -0.796875 C 2.222656 -1.109375 1.875 -1.457031 1.625 -1.84375 C 1.375 -2.226562 1.25 -2.53125 1.25 -2.75 C 1.25 -2.976562 1.28125 -3.144531 1.34375 -3.25 C 1.40625 -3.363281 1.488281 -3.472656 1.59375 -3.578125 C 1.84375 -3.816406 2.085938 -3.9375 2.328125 -3.9375 C 2.566406 -3.9375 2.75 -3.878906 2.875 -3.765625 C 3.007812 -3.648438 3.128906 -3.429688 3.234375 -3.109375 C 3.347656 -2.785156 3.507812 -2.472656 3.71875 -2.171875 C 3.925781 -1.867188 4.179688 -1.601562 4.484375 -1.375 C 5.109375 -0.894531 5.878906 -0.65625 6.796875 -0.65625 C 7.609375 -0.65625 8.300781 -0.859375 8.875 -1.265625 C 9.46875 -1.671875 9.765625 -2.179688 9.765625 -2.796875 C 9.765625 -3.421875 9.492188 -3.96875 8.953125 -4.4375 C 8.378906 -4.9375 7.523438 -5.410156 6.390625 -5.859375 C 5.265625 -6.316406 4.460938 -6.703125 3.984375 -7.015625 C 3.503906 -7.328125 3.113281 -7.65625 2.8125 -8 C 2.238281 -8.675781 1.953125 -9.445312 1.953125 -10.3125 C 1.953125 -11.3125 2.398438 -12.140625 3.296875 -12.796875 C 4.203125 -13.460938 5.335938 -13.796875 6.703125 -13.796875 C 7.878906 -13.796875 8.875 -13.546875 9.6875 -13.046875 C 10.382812 -12.609375 10.734375 -12.144531 10.734375 -11.65625 C 10.734375 -11.40625 10.601562 -11.1875 10.34375 -11 C 10.09375 -10.820312 9.851562 -10.734375 9.625 -10.734375 C 9.394531 -10.734375 9.210938 -10.78125 9.078125 -10.875 C 8.953125 -10.96875 8.765625 -11.210938 8.515625 -11.609375 C 8.015625 -12.378906 7.257812 -12.765625 6.25 -12.765625 C 5.101562 -12.765625 4.347656 -12.421875 3.984375 -11.734375 C 3.867188 -11.535156 3.8125 -11.320312 3.8125 -11.09375 C 3.8125 -10.875 3.859375 -10.660156 3.953125 -10.453125 C 4.046875 -10.242188 4.222656 -10.023438 4.484375 -9.796875 C 5.015625 -9.347656 6 -8.828125 7.4375 -8.234375 C 10.238281 -7.078125 11.640625 -5.59375 11.640625 -3.78125 C 11.640625 -2.5625 11.148438 -1.566406 10.171875 -0.796875 C 9.171875 -0.0234375 7.894531 0.359375 6.34375 0.359375 C 4.957031 0.359375 3.734375 -0.0234375 2.671875 -0.796875 Z M 2.671875 -0.796875 "/></g></g></g><g fill="#2b2b2b" fill-opacity="1"><g transform="translate(280.772773, 237.204868)"><g><path d="M 2.671875 -0.796875 C 2.222656 -1.109375 1.875 -1.457031 1.625 -1.84375 C 1.375 -2.226562 1.25 -2.53125 1.25 -2.75 C 1.25 -2.976562 1.28125 -3.144531 1.34375 -3.25 C 1.40625 -3.363281 1.488281 -3.472656 1.59375 -3.578125 C 1.84375 -3.816406 2.085938 -3.9375 2.328125 -3.9375 C 2.566406 -3.9375 2.75 -3.878906 2.875 -3.765625 C 3.007812 -3.648438 3.128906 -3.429688 3.234375 -3.109375 C 3.347656 -2.785156 3.507812 -2.472656 3.71875 -2.171875 C 3.925781 -1.867188 4.179688 -1.601562 4.484375 -1.375 C 5.109375 -0.894531 5.878906 -0.65625 6.796875 -0.65625 C 7.609375 -0.65625 8.300781 -0.859375 8.875 -1.265625 C 9.46875 -1.671875 9.765625 -2.179688 9.765625 -2.796875 C 9.765625 -3.421875 9.492188 -3.96875 8.953125 -4.4375 C 8.378906 -4.9375 7.523438 -5.410156 6.390625 -5.859375 C 5.265625 -6.316406 4.460938 -6.703125 3.984375 -7.015625 C 3.503906 -7.328125 3.113281 -7.65625 2.8125 -8 C 2.238281 -8.675781 1.953125 -9.445312 1.953125 -10.3125 C 1.953125 -11.3125 2.398438 -12.140625 3.296875 -12.796875 C 4.203125 -13.460938 5.335938 -13.796875 6.703125 -13.796875 C 7.878906 -13.796875 8.875 -13.546875 9.6875 -13.046875 C 10.382812 -12.609375 10.734375 -12.144531 10.734375 -11.65625 C 10.734375 -11.40625 10.601562 -11.1875 10.34375 -11 C 10.09375 -10.820312 9.851562 -10.734375 9.625 -10.734375 C 9.394531 -10.734375 9.210938 -10.78125 9.078125 -10.875 C 8.953125 -10.96875 8.765625 -11.210938 8.515625 -11.609375 C 8.015625 -12.378906 7.257812 -12.765625 6.25 -12.765625 C 5.101562 -12.765625 4.347656 -12.421875 3.984375 -11.734375 C 3.867188 -11.535156 3.8125 -11.320312 3.8125 -11.09375 C 3.8125 -10.875 3.859375 -10.660156 3.953125 -10.453125 C 4.046875 -10.242188 4.222656 -10.023438 4.484375 -9.796875 C 5.015625 -9.347656 6 -8.828125 7.4375 -8.234375 C 10.238281 -7.078125 11.640625 -5.59375 11.640625 -3.78125 C 11.640625 -2.5625 11.148438 -1.566406 10.171875 -0.796875 C 9.171875 -0.0234375 7.894531 0.359375 6.34375 0.359375 C 4.957031 0.359375 3.734375 -0.0234375 2.671875 -0.796875 Z M 2.671875 -0.796875 "/></g></g></g><g fill="#2b2b2b" fill-opacity="1"><g transform="translate(195.955144, 268.104352)"><g><path d="M 1.953125 0.21875 C 1.316406 0.21875 1 0.0351562 1 -0.328125 C 1 -0.609375 1.171875 -0.75 1.515625 -0.75 L 2.234375 -0.671875 C 2.816406 -0.671875 3.210938 -1 3.421875 -1.65625 C 3.585938 -2.207031 3.671875 -3.203125 3.671875 -4.640625 L 3.671875 -14.96875 C 3.671875 -16.40625 3.601562 -17.34375 3.46875 -17.78125 C 3.332031 -18.226562 3.164062 -18.53125 2.96875 -18.6875 C 2.78125 -18.851562 2.535156 -18.9375 2.234375 -18.9375 L 1.515625 -18.875 C 1.171875 -18.875 1 -19.015625 1 -19.296875 C 1 -19.660156 1.265625 -19.84375 1.796875 -19.84375 C 2.335938 -19.84375 2.847656 -19.800781 3.328125 -19.71875 C 3.804688 -19.644531 4.3125 -19.609375 4.84375 -19.609375 C 5.375 -19.609375 5.878906 -19.644531 6.359375 -19.71875 C 6.835938 -19.800781 7.453125 -19.84375 8.203125 -19.84375 C 8.960938 -19.84375 9.773438 -19.71875 10.640625 -19.46875 C 11.515625 -19.226562 12.25 -18.882812 12.84375 -18.4375 C 14.082031 -17.507812 14.703125 -16.28125 14.703125 -14.75 C 14.703125 -13.050781 14.003906 -11.585938 12.609375 -10.359375 C 12.160156 -9.972656 11.664062 -9.640625 11.125 -9.359375 L 15.875 -2.453125 C 16.414062 -1.660156 17.003906 -1.1875 17.640625 -1.03125 C 17.828125 -0.976562 18.0625 -0.9375 18.34375 -0.90625 C 18.84375 -0.851562 19.09375 -0.6875 19.09375 -0.40625 C 19.09375 -0.132812 18.828125 0 18.296875 0 L 15.484375 0 C 14.804688 0 14.195312 -0.4375 13.65625 -1.3125 L 9.96875 -7.21875 C 9.632812 -7.726562 9.316406 -8.09375 9.015625 -8.3125 C 8.710938 -8.53125 8.242188 -8.640625 7.609375 -8.640625 C 6.984375 -8.640625 6.4375 -8.628906 5.96875 -8.609375 L 5.96875 -4.640625 C 5.96875 -3.160156 6.03125 -2.207031 6.15625 -1.78125 C 6.289062 -1.363281 6.453125 -1.070312 6.640625 -0.90625 C 6.835938 -0.75 7.09375 -0.671875 7.40625 -0.671875 L 8.109375 -0.75 C 8.460938 -0.75 8.640625 -0.609375 8.640625 -0.328125 C 8.640625 0.0351562 8.328125 0.21875 7.703125 0.21875 C 7.378906 0.21875 7.035156 0.1875 6.671875 0.125 C 5.503906 -0.0507812 4.503906 -0.0820312 3.671875 0.03125 C 2.835938 0.15625 2.265625 0.21875 1.953125 0.21875 Z M 5.96875 -9.890625 C 6.601562 -9.828125 7.210938 -9.796875 7.796875 -9.796875 L 8.71875 -9.796875 C 9.664062 -9.796875 10.46875 -10.113281 11.125 -10.75 C 11.882812 -11.5 12.265625 -12.523438 12.265625 -13.828125 C 12.265625 -15.390625 11.789062 -16.625 10.84375 -17.53125 C 9.957031 -18.382812 8.816406 -18.8125 7.421875 -18.8125 C 6.921875 -18.8125 6.550781 -18.742188 6.3125 -18.609375 C 6.082031 -18.472656 5.96875 -18.238281 5.96875 -17.90625 Z M 5.96875 -9.890625 "/></g></g></g><g fill="#2b2b2b" fill-opacity="1"><g transform="translate(224.207551, 268.104352)"><g><path d="M 2.953125 -1.640625 C 2.390625 -2.273438 1.953125 -3.019531 1.640625 -3.875 C 1.335938 -4.738281 1.1875 -5.691406 1.1875 -6.734375 C 1.1875 -7.785156 1.363281 -8.75 1.71875 -9.625 C 2.082031 -10.507812 2.582031 -11.257812 3.21875 -11.875 C 4.53125 -13.175781 6.15625 -13.828125 8.09375 -13.828125 C 9.6875 -13.828125 10.976562 -13.300781 11.96875 -12.25 C 12.90625 -11.226562 13.375 -9.972656 13.375 -8.484375 C 13.375 -7.992188 13.304688 -7.660156 13.171875 -7.484375 C 13.046875 -7.304688 12.882812 -7.195312 12.6875 -7.15625 C 12.488281 -7.125 12.21875 -7.09375 11.875 -7.0625 C 11.539062 -7.039062 11.128906 -7.015625 10.640625 -6.984375 C 10.148438 -6.960938 9.601562 -6.9375 9 -6.90625 C 8.40625 -6.875 7.796875 -6.835938 7.171875 -6.796875 C 5.734375 -6.710938 4.582031 -6.628906 3.71875 -6.546875 C 3.925781 -3.921875 4.929688 -2.21875 6.734375 -1.4375 C 7.316406 -1.175781 7.941406 -1.046875 8.609375 -1.046875 C 10.015625 -1.046875 11.125 -1.457031 11.9375 -2.28125 C 12.289062 -2.632812 12.5625 -2.8125 12.75 -2.8125 C 13.09375 -2.8125 13.265625 -2.601562 13.265625 -2.1875 C 13.265625 -1.96875 13.117188 -1.707031 12.828125 -1.40625 C 12.535156 -1.101562 12.117188 -0.789062 11.578125 -0.46875 C 10.609375 0.0820312 9.476562 0.359375 8.1875 0.359375 C 6.90625 0.359375 5.851562 0.179688 5.03125 -0.171875 C 4.21875 -0.523438 3.523438 -1.015625 2.953125 -1.640625 Z M 3.6875 -7.625 C 8.257812 -7.851562 10.671875 -8.101562 10.921875 -8.375 C 11.003906 -8.46875 11.046875 -8.753906 11.046875 -9.234375 C 11.046875 -9.710938 10.953125 -10.175781 10.765625 -10.625 C 10.578125 -11.082031 10.332031 -11.472656 10.03125 -11.796875 C 9.382812 -12.453125 8.582031 -12.78125 7.625 -12.78125 C 6.539062 -12.78125 5.628906 -12.320312 4.890625 -11.40625 C 4.109375 -10.46875 3.707031 -9.207031 3.6875 -7.625 Z M 3.6875 -7.625 "/></g></g></g><g fill="#2b2b2b" fill-opacity="1"><g transform="translate(247.822257, 268.104352)"><g><path d="M 1.765625 0.21875 C 1.128906 0.21875 0.8125 0.0351562 0.8125 -0.328125 C 0.8125 -0.609375 0.988281 -0.75 1.34375 -0.75 L 2.125 -0.671875 C 2.34375 -0.671875 2.523438 -0.710938 2.671875 -0.796875 C 2.816406 -0.878906 2.929688 -1.054688 3.015625 -1.328125 C 3.171875 -1.828125 3.25 -2.929688 3.25 -4.640625 L 3.25 -9.015625 C 3.25 -9.992188 3.179688 -10.609375 3.046875 -10.859375 C 2.921875 -11.109375 2.765625 -11.28125 2.578125 -11.375 C 2.390625 -11.46875 2.097656 -11.546875 1.703125 -11.609375 C 1.316406 -11.671875 1.125 -11.828125 1.125 -12.078125 C 1.125 -12.296875 1.375 -12.457031 1.875 -12.5625 C 3.132812 -12.820312 3.972656 -13.066406 4.390625 -13.296875 C 4.960938 -13.628906 5.359375 -13.796875 5.578125 -13.796875 C 5.796875 -13.796875 5.90625 -13.6875 5.90625 -13.46875 C 5.90625 -13.351562 5.890625 -13.238281 5.859375 -13.125 C 5.671875 -12.65625 5.5625 -11.898438 5.53125 -10.859375 C 6.082031 -11.804688 6.773438 -12.53125 7.609375 -13.03125 C 8.453125 -13.539062 9.28125 -13.796875 10.09375 -13.796875 C 10.90625 -13.796875 11.59375 -13.691406 12.15625 -13.484375 C 12.726562 -13.285156 13.210938 -12.976562 13.609375 -12.5625 C 14.429688 -11.675781 14.84375 -10.378906 14.84375 -8.671875 L 14.84375 -4.640625 C 14.84375 -2.929688 14.898438 -1.882812 15.015625 -1.5 C 15.128906 -1.113281 15.257812 -0.878906 15.40625 -0.796875 C 15.550781 -0.710938 15.738281 -0.671875 15.96875 -0.671875 L 16.71875 -0.75 C 17.082031 -0.75 17.265625 -0.609375 17.265625 -0.328125 C 17.265625 0.0351562 16.9375 0.21875 16.28125 0.21875 C 15.90625 0.21875 15.503906 0.179688 15.078125 0.109375 C 14.648438 0.0351562 14.195312 0 13.71875 0 C 13.238281 0 12.773438 0.0351562 12.328125 0.109375 C 11.890625 0.179688 11.484375 0.21875 11.109375 0.21875 C 10.453125 0.21875 10.125 0.0351562 10.125 -0.328125 C 10.125 -0.609375 10.304688 -0.75 10.671875 -0.75 L 11.421875 -0.671875 C 11.648438 -0.671875 11.835938 -0.710938 11.984375 -0.796875 C 12.128906 -0.878906 12.242188 -1.054688 12.328125 -1.328125 C 12.484375 -1.816406 12.5625 -2.921875 12.5625 -4.640625 L 12.5625 -7.96875 C 12.5625 -10.757812 11.550781 -12.15625 9.53125 -12.15625 C 8.09375 -12.15625 6.972656 -11.507812 6.171875 -10.21875 C 5.890625 -9.738281 5.671875 -9.148438 5.515625 -8.453125 L 5.515625 -4.640625 C 5.515625 -2.929688 5.570312 -1.882812 5.6875 -1.5 C 5.8125 -1.113281 5.945312 -0.878906 6.09375 -0.796875 C 6.238281 -0.710938 6.421875 -0.671875 6.640625 -0.671875 L 7.421875 -0.75 C 7.773438 -0.75 7.953125 -0.609375 7.953125 -0.328125 C 7.953125 0.0351562 7.632812 0.21875 7 0.21875 C 6.625 0.21875 6.226562 0.179688 5.8125 0.109375 C 5.394531 0.0351562 4.925781 0 4.40625 0 C 3.894531 0 3.421875 0.0351562 2.984375 0.109375 C 2.554688 0.179688 2.148438 0.21875 1.765625 0.21875 Z M 1.765625 0.21875 "/></g></g></g><g fill="#2b2b2b" fill-opacity="1"><g transform="translate(274.538527, 268.104352)"><g><path d="M 9.390625 -12.34375 C 9.390625 -12.082031 9.234375 -11.953125 8.921875 -11.953125 L 4.765625 -12 L 4.765625 -3.890625 C 4.765625 -2.378906 5.132812 -1.484375 5.875 -1.203125 C 6.09375 -1.109375 6.351562 -1.0625 6.65625 -1.0625 C 6.957031 -1.0625 7.234375 -1.113281 7.484375 -1.21875 C 7.734375 -1.320312 7.953125 -1.429688 8.140625 -1.546875 C 8.335938 -1.671875 8.503906 -1.78125 8.640625 -1.875 C 8.785156 -1.976562 8.914062 -2.03125 9.03125 -2.03125 C 9.15625 -2.03125 9.265625 -1.960938 9.359375 -1.828125 C 9.460938 -1.691406 9.515625 -1.554688 9.515625 -1.421875 C 9.515625 -1.078125 9.078125 -0.664062 8.203125 -0.1875 C 7.546875 0.175781 6.710938 0.359375 5.703125 0.359375 C 4.703125 0.359375 3.914062 0.00390625 3.34375 -0.703125 C 2.78125 -1.421875 2.5 -2.414062 2.5 -3.6875 L 2.5 -12.046875 L 1.609375 -12.046875 C 0.910156 -12.046875 0.5625 -12.222656 0.5625 -12.578125 C 0.5625 -12.847656 0.753906 -13.03125 1.140625 -13.125 C 1.535156 -13.21875 1.875 -13.390625 2.15625 -13.640625 C 2.4375 -13.890625 2.664062 -14.171875 2.84375 -14.484375 C 3.019531 -14.804688 3.160156 -15.140625 3.265625 -15.484375 C 3.378906 -15.828125 3.484375 -16.140625 3.578125 -16.421875 C 3.785156 -17.066406 4.023438 -17.390625 4.296875 -17.390625 C 4.609375 -17.390625 4.765625 -17.109375 4.765625 -16.546875 L 4.765625 -13.25 L 8.875 -13.328125 C 9.082031 -13.328125 9.242188 -13.082031 9.359375 -12.59375 C 9.378906 -12.488281 9.390625 -12.40625 9.390625 -12.34375 Z M 9.390625 -12.34375 "/></g></g></g><g fill="#2b2b2b" fill-opacity="1"><g transform="translate(293.778844, 268.104352)"><g><path d="M 14.515625 -1.953125 C 14.796875 -1.953125 14.9375 -1.820312 14.9375 -1.5625 C 14.9375 -1.3125 14.65625 -1.066406 14.09375 -0.828125 C 13.53125 -0.597656 13.132812 -0.382812 12.90625 -0.1875 C 12.675781 0 12.507812 0.132812 12.40625 0.21875 C 12.300781 0.3125 12.175781 0.359375 12.03125 0.359375 C 11.738281 0.359375 11.492188 0.238281 11.296875 0 C 11.097656 -0.238281 10.832031 -0.757812 10.5 -1.5625 C 9.945312 -0.925781 9.269531 -0.445312 8.46875 -0.125 C 7.675781 0.195312 6.890625 0.359375 6.109375 0.359375 C 4.640625 0.359375 3.5 -0.015625 2.6875 -0.765625 C 1.882812 -1.515625 1.484375 -2.539062 1.484375 -3.84375 C 1.484375 -5.15625 2.09375 -6.21875 3.3125 -7.03125 C 4.539062 -7.84375 6.101562 -8.25 8 -8.25 C 8.570312 -8.25 9.320312 -8.148438 10.25 -7.953125 L 10.25 -9.109375 C 10.25 -11.609375 9.1875 -12.859375 7.0625 -12.859375 C 5.945312 -12.859375 5.125 -12.34375 4.59375 -11.3125 C 4.132812 -10.382812 3.6875 -9.921875 3.25 -9.921875 C 2.925781 -9.921875 2.644531 -10.015625 2.40625 -10.203125 C 2.164062 -10.390625 2.046875 -10.625 2.046875 -10.90625 C 2.046875 -11.1875 2.191406 -11.5 2.484375 -11.84375 C 2.773438 -12.1875 3.164062 -12.503906 3.65625 -12.796875 C 4.8125 -13.460938 6.078125 -13.796875 7.453125 -13.796875 C 9.890625 -13.796875 11.460938 -13 12.171875 -11.40625 C 12.429688 -10.84375 12.5625 -10.15625 12.5625 -9.34375 L 12.5625 -3.5 C 12.5625 -2.75 12.632812 -2.265625 12.78125 -2.046875 C 12.9375 -1.835938 13.144531 -1.734375 13.40625 -1.734375 C 13.664062 -1.734375 13.878906 -1.769531 14.046875 -1.84375 C 14.210938 -1.914062 14.367188 -1.953125 14.515625 -1.953125 Z M 10.25 -6.59375 C 9.539062 -7 8.648438 -7.203125 7.578125 -7.203125 C 6.503906 -7.203125 5.644531 -6.929688 5 -6.390625 C 4.351562 -5.859375 4.03125 -5.140625 4.03125 -4.234375 C 4.03125 -3.328125 4.273438 -2.570312 4.765625 -1.96875 C 5.265625 -1.375 5.90625 -1.078125 6.6875 -1.078125 C 8.351562 -1.078125 9.550781 -1.625 10.28125 -2.71875 C 10.257812 -2.988281 10.25 -3.289062 10.25 -3.625 Z M 10.25 -6.59375 "/></g></g></g><g fill="#2b2b2b" fill-opacity="1"><g transform="translate(318.095791, 268.104352)"><g><path d="M 1.78125 0.21875 C 1.132812 0.21875 0.8125 0.0351562 0.8125 -0.328125 C 0.8125 -0.609375 0.992188 -0.75 1.359375 -0.75 L 2.09375 -0.671875 C 2.3125 -0.671875 2.492188 -0.710938 2.640625 -0.796875 C 2.796875 -0.878906 2.910156 -1.054688 2.984375 -1.328125 C 3.140625 -1.828125 3.21875 -2.929688 3.21875 -4.640625 L 3.21875 -15.546875 C 3.21875 -17.160156 2.878906 -18.015625 2.203125 -18.109375 C 1.722656 -18.191406 1.484375 -18.351562 1.484375 -18.59375 C 1.484375 -18.820312 1.710938 -18.984375 2.171875 -19.078125 C 2.628906 -19.171875 3.039062 -19.285156 3.40625 -19.421875 C 3.78125 -19.566406 4.109375 -19.703125 4.390625 -19.828125 C 4.671875 -19.960938 4.910156 -20.078125 5.109375 -20.171875 C 5.316406 -20.273438 5.460938 -20.328125 5.546875 -20.328125 C 5.765625 -20.328125 5.875 -20.210938 5.875 -19.984375 C 5.875 -19.878906 5.859375 -19.769531 5.828125 -19.65625 C 5.617188 -19.125 5.507812 -18.453125 5.5 -17.640625 C 5.488281 -16.835938 5.484375 -16.175781 5.484375 -15.65625 L 5.484375 -4.640625 C 5.484375 -2.929688 5.539062 -1.882812 5.65625 -1.5 C 5.78125 -1.113281 5.914062 -0.878906 6.0625 -0.796875 C 6.207031 -0.710938 6.390625 -0.671875 6.609375 -0.671875 L 7.34375 -0.75 C 7.707031 -0.75 7.890625 -0.609375 7.890625 -0.328125 C 7.890625 0.0351562 7.566406 0.21875 6.921875 0.21875 C 6.546875 0.21875 6.160156 0.179688 5.765625 0.109375 C 5.367188 0.0351562 4.910156 0 4.390625 0 C 3.867188 0 3.394531 0.0351562 2.96875 0.109375 C 2.550781 0.179688 2.15625 0.21875 1.78125 0.21875 Z M 1.78125 0.21875 "/></g></g></g><g fill="#2b2b2b" fill-opacity="1"><g transform="translate(335.931626, 268.104352)"><g><path d="M 2.671875 -0.796875 C 2.222656 -1.109375 1.875 -1.457031 1.625 -1.84375 C 1.375 -2.226562 1.25 -2.53125 1.25 -2.75 C 1.25 -2.976562 1.28125 -3.144531 1.34375 -3.25 C 1.40625 -3.363281 1.488281 -3.472656 1.59375 -3.578125 C 1.84375 -3.816406 2.085938 -3.9375 2.328125 -3.9375 C 2.566406 -3.9375 2.75 -3.878906 2.875 -3.765625 C 3.007812 -3.648438 3.128906 -3.429688 3.234375 -3.109375 C 3.347656 -2.785156 3.507812 -2.472656 3.71875 -2.171875 C 3.925781 -1.867188 4.179688 -1.601562 4.484375 -1.375 C 5.109375 -0.894531 5.878906 -0.65625 6.796875 -0.65625 C 7.609375 -0.65625 8.300781 -0.859375 8.875 -1.265625 C 9.46875 -1.671875 9.765625 -2.179688 9.765625 -2.796875 C 9.765625 -3.421875 9.492188 -3.96875 8.953125 -4.4375 C 8.378906 -4.9375 7.523438 -5.410156 6.390625 -5.859375 C 5.265625 -6.316406 4.460938 -6.703125 3.984375 -7.015625 C 3.503906 -7.328125 3.113281 -7.65625 2.8125 -8 C 2.238281 -8.675781 1.953125 -9.445312 1.953125 -10.3125 C 1.953125 -11.3125 2.398438 -12.140625 3.296875 -12.796875 C 4.203125 -13.460938 5.335938 -13.796875 6.703125 -13.796875 C 7.878906 -13.796875 8.875 -13.546875 9.6875 -13.046875 C 10.382812 -12.609375 10.734375 -12.144531 10.734375 -11.65625 C 10.734375 -11.40625 10.601562 -11.1875 10.34375 -11 C 10.09375 -10.820312 9.851562 -10.734375 9.625 -10.734375 C 9.394531 -10.734375 9.210938 -10.78125 9.078125 -10.875 C 8.953125 -10.96875 8.765625 -11.210938 8.515625 -11.609375 C 8.015625 -12.378906 7.257812 -12.765625 6.25 -12.765625 C 5.101562 -12.765625 4.347656 -12.421875 3.984375 -11.734375 C 3.867188 -11.535156 3.8125 -11.320312 3.8125 -11.09375 C 3.8125 -10.875 3.859375 -10.660156 3.953125 -10.453125 C 4.046875 -10.242188 4.222656 -10.023438 4.484375 -9.796875 C 5.015625 -9.347656 6 -8.828125 7.4375 -8.234375 C 10.238281 -7.078125 11.640625 -5.59375 11.640625 -3.78125 C 11.640625 -2.5625 11.148438 -1.566406 10.171875 -0.796875 C 9.171875 -0.0234375 7.894531 0.359375 6.34375 0.359375 C 4.957031 0.359375 3.734375 -0.0234375 2.671875 -0.796875 Z M 2.671875 -0.796875 "/></g></g></g></svg>