<svg xmlns="http://www.w3.org/2000/svg" xmlns:xlink="http://www.w3.org/1999/xlink" width="500" zoomAndPan="magnify" viewBox="0 0 375 374.999991" height="500" preserveAspectRatio="xMidYMid meet" version="1.0"><defs><g/><clipPath id="b07748d48c"><path d="M 112.863281 181.910156 L 293.769531 181.910156 L 293.769531 209.558594 L 112.863281 209.558594 Z M 112.863281 181.910156 " clip-rule="nonzero"/></clipPath></defs><g fill="#737373" fill-opacity="1"><g transform="translate(166.943168, 248.688968)"><g><path d="M 65.796875 0 L 12.984375 0 L 13.203125 -2.171875 L 15.796875 -2.171875 C 19.546875 -2.171875 22.753906 -3.46875 25.421875 -6.0625 C 28.097656 -8.65625 29.507812 -11.828125 29.65625 -15.578125 L 29.65625 -135.921875 C 29.65625 -139.671875 28.28125 -142.84375 25.53125 -145.4375 C 22.789062 -148.039062 19.546875 -149.34375 15.796875 -149.34375 L 13.203125 -149.34375 L 12.984375 -151.5 L 56.0625 -151.5 C 70.914062 -151.5 82.457031 -148.21875 90.6875 -141.65625 C 98.914062 -135.09375 103.03125 -126.328125 103.03125 -115.359375 C 103.03125 -106.703125 100.71875 -99.523438 96.09375 -93.828125 C 91.476562 -88.128906 85.851562 -84.34375 79.21875 -82.46875 C 90.613281 -80.726562 99.628906 -76.035156 106.265625 -68.390625 C 112.910156 -60.742188 116.234375 -51.113281 116.234375 -39.5 C 116.234375 -27.882812 111.796875 -18.394531 102.921875 -11.03125 C 94.046875 -3.675781 81.671875 0 65.796875 0 Z M 43.71875 -7.796875 L 64.9375 -7.796875 C 65.070312 -7.796875 65.210938 -7.796875 65.359375 -7.796875 C 76.328125 -7.796875 84.84375 -10.785156 90.90625 -16.765625 C 96.96875 -22.753906 100 -31.234375 100 -42.203125 C 100 -48.410156 98.953125 -53.859375 96.859375 -58.546875 C 94.765625 -63.234375 92.128906 -66.945312 88.953125 -69.6875 C 80.585938 -76.613281 68.035156 -80.078125 51.296875 -80.078125 C 51.296875 -80.078125 51.222656 -80.078125 51.078125 -80.078125 L 51.078125 -82.03125 C 51.222656 -82.03125 51.90625 -82.03125 53.125 -82.03125 C 54.351562 -82.03125 56.125 -82.171875 58.4375 -82.453125 C 60.75 -82.742188 63.347656 -83.25 66.234375 -83.96875 C 69.117188 -84.695312 71.710938 -85.851562 74.015625 -87.4375 C 76.328125 -89.03125 78.492188 -90.90625 80.515625 -93.0625 C 84.703125 -97.820312 86.796875 -104.925781 86.796875 -114.375 C 86.796875 -123.832031 84.085938 -131.226562 78.671875 -136.5625 C 73.265625 -141.90625 65.4375 -144.578125 55.1875 -144.578125 L 43.71875 -144.578125 Z M 43.71875 -7.796875 "/></g></g></g><g fill="#737373" fill-opacity="1"><g transform="translate(257.225085, 128.489171)"><g><path d="M -57.578125 144.796875 L -43.71875 144.796875 L -43.71875 15.796875 C -43.71875 12.046875 -45.050781 8.835938 -47.71875 6.171875 C -50.394531 3.503906 -53.679688 2.171875 -57.578125 2.171875 L -60.171875 2.171875 L -60.390625 0 L -12.984375 0 L -12.984375 2.171875 L -15.796875 2.171875 C -19.546875 2.171875 -22.753906 3.46875 -25.421875 6.0625 C -28.097656 8.65625 -29.507812 11.828125 -29.65625 15.578125 L -29.65625 135.703125 C -29.507812 139.453125 -28.097656 142.660156 -25.421875 145.328125 C -22.753906 148.003906 -19.546875 149.34375 -15.796875 149.34375 L -12.984375 149.34375 L -12.984375 151.5 L -71.421875 151.5 C -84.554688 151.5 -94.875 147.851562 -102.375 140.5625 C -109.875 133.28125 -113.625 123.832031 -113.625 112.21875 C -113.625 100.601562 -110.050781 90.570312 -102.90625 82.125 C -95.769531 73.6875 -87.078125 69.46875 -76.828125 69.46875 C -78.992188 68.46875 -81.554688 66.488281 -84.515625 63.53125 C -87.472656 60.570312 -90.109375 57.503906 -92.421875 54.328125 C -104.828125 36.578125 -112.90625 25.644531 -116.65625 21.53125 C -120.40625 17.414062 -123.070312 14.601562 -124.65625 13.09375 C -126.25 11.582031 -127.984375 10.101562 -129.859375 8.65625 C -131.734375 7.21875 -133.609375 6.0625 -135.484375 5.1875 C -139.671875 3.175781 -144.144531 2.171875 -148.90625 2.171875 L -148.90625 0 L -137 0 C -130.800781 0 -125.03125 1.113281 -119.6875 3.34375 C -114.351562 5.582031 -110.347656 7.894531 -107.671875 10.28125 C -105.003906 12.664062 -102.695312 14.972656 -100.75 17.203125 C -98.800781 19.441406 -93.425781 26.910156 -84.625 39.609375 C -75.820312 52.304688 -70.695312 59.554688 -69.25 61.359375 C -67.8125 63.160156 -66.300781 64.925781 -64.71875 66.65625 C -60.09375 71.5625 -55.472656 74.015625 -50.859375 74.015625 L -50.859375 76.1875 C -52.015625 76.039062 -53.53125 75.96875 -55.40625 75.96875 C -57.28125 75.96875 -59.585938 76.039062 -62.328125 76.1875 C -80.222656 76.613281 -91.476562 84.117188 -96.09375 98.703125 C -96.957031 101.585938 -97.390625 104.289062 -97.390625 106.8125 C -97.390625 109.332031 -97.390625 110.957031 -97.390625 111.6875 C -97.109375 121.351562 -94.582031 129.144531 -89.8125 135.0625 C -85.050781 140.976562 -78.632812 144.148438 -70.5625 144.578125 C -67.09375 144.722656 -62.765625 144.796875 -57.578125 144.796875 Z M -57.578125 144.796875 "/></g></g></g><g clip-path="url(#b07748d48c)"><path fill="#fffafa" d="M 112.863281 181.910156 L 293.144531 181.910156 L 293.144531 209.886719 L 112.863281 209.886719 Z M 112.863281 181.910156 " fill-opacity="1" fill-rule="nonzero"/></g><g fill="#737373" fill-opacity="1"><g transform="translate(207.354029, 199.115312)"><g><path d="M 19.140625 -3.644531 C 19.101562 -3.644531 19.058594 -3.644531 19.015625 -3.601562 C 17.507812 -2.304688 13.027344 0.835938 10.304688 0.835938 C 8.964844 0.835938 8.042969 -0.753906 7.164062 -2.34375 L 6.617188 -3.265625 C 12.859375 -3.351562 18.21875 -7.875 18.21875 -11.601562 C 18.21875 -13.402344 17.046875 -14.324219 14.703125 -14.324219 C 10.304688 -14.324219 4.480469 -11.351562 2.011719 -7.789062 C 1.96875 -7.75 1.96875 -7.707031 1.96875 -7.664062 C 1.96875 -7.539062 2.050781 -7.414062 2.179688 -7.414062 C 2.261719 -7.414062 2.34375 -7.457031 2.386719 -7.539062 C 4.816406 -10.933594 10.429688 -13.820312 14.703125 -13.820312 C 16.796875 -13.820312 17.757812 -13.109375 17.757812 -11.601562 C 17.757812 -8.082031 12.609375 -3.769531 6.449219 -3.769531 L 6.28125 -3.769531 C 6.117188 -4.019531 5.949219 -4.230469 5.78125 -4.398438 C 7.539062 -6.574219 9.550781 -8.710938 11.265625 -10.179688 C 11.308594 -10.21875 11.351562 -10.261719 11.351562 -10.347656 C 11.351562 -10.472656 11.226562 -10.597656 11.101562 -10.597656 C 11.058594 -10.597656 11.015625 -10.554688 10.972656 -10.511719 C 9.214844 -9.046875 7.203125 -6.910156 5.445312 -4.734375 C 5.152344 -4.984375 4.816406 -5.109375 4.441406 -5.109375 C 4.105469 -5.109375 3.851562 -4.902344 3.851562 -4.566406 C 3.851562 -4.273438 4.148438 -3.9375 4.605469 -3.6875 C 2.597656 -1.171875 1.046875 1.257812 0.878906 2.386719 C 0.835938 2.597656 0.796875 2.722656 0.796875 2.804688 L 0.835938 2.972656 C 0.921875 3.097656 1.046875 3.140625 1.171875 3.097656 C 1.382812 3.058594 1.507812 2.640625 1.589844 2.261719 C 1.589844 2.09375 1.550781 2.011719 1.464844 2.011719 C 1.925781 0.796875 3.308594 -1.296875 5.066406 -3.519531 C 5.363281 -3.394531 5.695312 -3.308594 6.03125 -3.308594 C 6.28125 -2.933594 6.492188 -2.511719 6.742188 -2.09375 C 7.625 -0.503906 8.671875 1.339844 10.304688 1.339844 C 13.195312 1.339844 17.800781 -1.925781 19.308594 -3.226562 C 19.351562 -3.265625 19.394531 -3.351562 19.394531 -3.433594 C 19.394531 -3.558594 19.308594 -3.644531 19.140625 -3.644531 Z M 4.902344 -4.105469 C 4.566406 -4.230469 4.3125 -4.441406 4.3125 -4.566406 C 4.3125 -4.605469 4.355469 -4.648438 4.441406 -4.648438 C 4.691406 -4.648438 4.902344 -4.523438 5.152344 -4.398438 C 5.066406 -4.273438 4.984375 -4.1875 4.902344 -4.105469 Z M 5.363281 -3.9375 L 5.488281 -4.0625 C 5.527344 -3.980469 5.613281 -3.9375 5.65625 -3.851562 C 5.570312 -3.851562 5.488281 -3.894531 5.363281 -3.9375 Z M 5.363281 -3.9375 "/></g></g></g><g fill="#737373" fill-opacity="1"><g transform="translate(225.572148, 199.115312)"><g><path d="M 1.382812 0.125 C 2.679688 0.125 6.742188 -1.046875 9.675781 -3.226562 C 9.757812 -3.265625 9.800781 -3.351562 9.800781 -3.433594 C 9.800781 -3.558594 9.675781 -3.644531 9.550781 -3.644531 C 9.507812 -3.644531 9.464844 -3.644531 9.425781 -3.601562 C 6.535156 -1.507812 2.597656 -0.378906 1.382812 -0.378906 C 0.417969 -0.378906 -0.0820312 -0.628906 -0.0820312 -1.171875 C -0.0820312 -1.71875 0.335938 -2.386719 0.878906 -2.972656 C 1.132812 -2.847656 1.464844 -2.804688 1.925781 -2.804688 C 2.679688 -2.804688 3.644531 -3.433594 3.644531 -3.980469 C 3.644531 -4.398438 3.351562 -4.648438 2.890625 -4.648438 C 1.507812 -4.648438 -0.585938 -2.554688 -0.585938 -1.171875 C -0.585938 -0.335938 0.167969 0.125 1.382812 0.125 Z M 1.925781 -3.265625 C 1.632812 -3.265625 1.425781 -3.308594 1.257812 -3.351562 C 1.800781 -3.8125 2.386719 -4.148438 2.890625 -4.148438 C 3.097656 -4.148438 3.183594 -4.105469 3.183594 -3.980469 C 3.183594 -3.726562 2.386719 -3.265625 1.925781 -3.265625 Z M 1.925781 -3.265625 "/></g></g></g><g fill="#737373" fill-opacity="1"><g transform="translate(234.157695, 199.115312)"><g><path d="M -1.171875 0 C -1.003906 0 -0.628906 -0.335938 -0.125 -0.671875 C 1.507812 -1.84375 4.816406 -4.273438 6.15625 -4.273438 C 6.324219 -4.273438 6.367188 -4.148438 6.367188 -4.0625 C 6.367188 -3.851562 6.199219 -3.183594 6.03125 -2.597656 C 5.90625 -2.050781 5.78125 -1.507812 5.78125 -1.257812 C 5.78125 -0.753906 6.15625 -0.460938 6.742188 -0.460938 C 8.25 -0.460938 10.890625 -1.550781 13.445312 -3.226562 C 13.527344 -3.265625 13.570312 -3.351562 13.570312 -3.433594 C 13.570312 -3.558594 13.445312 -3.644531 13.320312 -3.644531 L 13.195312 -3.644531 C 10.679688 -1.96875 8.125 -0.921875 6.742188 -0.921875 C 6.410156 -0.921875 6.28125 -1.046875 6.28125 -1.257812 C 6.28125 -1.464844 6.367188 -1.925781 6.535156 -2.472656 C 6.660156 -3.097656 6.828125 -3.769531 6.828125 -4.148438 C 6.828125 -4.523438 6.574219 -4.734375 6.15625 -4.734375 C 5.066406 -4.734375 3.097656 -3.601562 -0.210938 -1.214844 C -0.417969 -1.089844 -0.460938 -1.257812 -0.378906 -1.382812 C 0.542969 -2.679688 2.34375 -4.773438 4.019531 -6.03125 C 4.0625 -6.074219 4.105469 -6.15625 4.105469 -6.242188 C 4.105469 -6.367188 4.019531 -6.449219 3.894531 -6.449219 C 3.8125 -6.449219 3.769531 -6.449219 3.726562 -6.410156 C 1.296875 -4.566406 -1.382812 -1.003906 -1.507812 -0.460938 C -1.550781 -0.210938 -1.425781 0 -1.171875 0 Z M -1.171875 0 "/></g></g></g><g fill="#737373" fill-opacity="1"><g transform="translate(246.512516, 199.115312)"><g><path d="M -8.835938 10.640625 C -8.628906 10.640625 -8.378906 10.304688 -8.167969 9.96875 C -8.082031 9.84375 -8.082031 9.71875 -8.167969 9.675781 C -4.1875 3.433594 0.878906 -3.097656 6.074219 -9.171875 C 9.71875 -9.339844 13.445312 -9.339844 17.003906 -9.214844 C 17.171875 -9.214844 17.257812 -9.296875 17.257812 -9.425781 C 17.257812 -9.550781 17.171875 -9.675781 17.046875 -9.675781 C 13.570312 -9.800781 10.011719 -9.800781 6.535156 -9.675781 C 8.796875 -12.3125 11.058594 -14.871094 13.320312 -17.296875 C 13.363281 -17.339844 13.363281 -17.425781 13.363281 -17.464844 C 13.363281 -17.59375 13.277344 -17.71875 13.109375 -17.71875 C 13.066406 -17.71875 12.984375 -17.675781 12.941406 -17.632812 C 10.597656 -15.078125 8.210938 -12.398438 5.863281 -9.632812 C 2.09375 -9.507812 -1.550781 -9.214844 -4.816406 -8.796875 C -4.941406 -8.753906 -5.027344 -8.671875 -5.027344 -8.542969 C -5.027344 -8.417969 -4.902344 -8.292969 -4.773438 -8.292969 L -4.734375 -8.292969 C -1.632812 -8.710938 1.84375 -9.003906 5.445312 -9.171875 C 0.167969 -2.972656 -4.902344 3.601562 -8.921875 9.925781 C -8.964844 10.011719 -9.003906 10.09375 -9.046875 10.179688 L -9.089844 10.21875 C -9.171875 10.472656 -9.132812 10.640625 -8.835938 10.640625 Z M -8.835938 10.640625 "/></g></g></g><g fill="#737373" fill-opacity="1"><g transform="translate(252.752744, 199.115312)"><g><path d="M 5.65625 0.0429688 C 7.121094 0.0429688 10.972656 -1.550781 13.320312 -3.226562 C 13.363281 -3.265625 13.402344 -3.351562 13.402344 -3.433594 C 13.402344 -3.558594 13.320312 -3.644531 13.195312 -3.644531 C 13.109375 -3.644531 13.066406 -3.644531 13.027344 -3.601562 C 10.679688 -1.84375 6.953125 -0.460938 5.65625 -0.460938 C 4.941406 -0.460938 4.605469 -0.671875 4.605469 -1.214844 C 4.605469 -2.011719 5.277344 -3.015625 5.78125 -3.726562 C 6.074219 -4.148438 6.242188 -4.398438 6.242188 -4.566406 C 6.242188 -4.734375 6.117188 -4.859375 5.949219 -4.859375 C 5.738281 -4.859375 5.234375 -4.523438 4.355469 -3.851562 C 4.105469 -4.3125 3.8125 -4.480469 3.183594 -4.480469 C 1.757812 -4.480469 -2.011719 -2.136719 -2.011719 -0.710938 C -2.011719 -0.292969 -1.71875 -0.0429688 -1.257812 -0.0429688 C -0.0820312 -0.0429688 2.511719 -1.96875 4.273438 -3.226562 C 4.605469 -3.476562 4.902344 -3.6875 5.109375 -3.8125 C 5.195312 -3.894531 5.320312 -3.851562 5.195312 -3.726562 C 4.691406 -2.972656 4.148438 -2.050781 4.148438 -1.214844 C 4.148438 -0.378906 4.648438 0.0429688 5.65625 0.0429688 Z M -1.257812 -0.542969 C -1.464844 -0.542969 -1.550781 -0.585938 -1.550781 -0.710938 C -1.550781 -1.71875 1.757812 -4.019531 3.183594 -4.019531 C 3.644531 -4.019531 3.769531 -3.9375 3.9375 -3.601562 C 2.21875 -2.304688 -0.25 -0.542969 -1.257812 -0.542969 Z M -1.257812 -0.542969 "/></g></g></g><g fill="#737373" fill-opacity="1"><g transform="translate(264.981917, 199.115312)"><g><path d="M 0.25 1.84375 C 1.886719 1.84375 6.617188 -0.753906 10.179688 -3.226562 C 10.21875 -3.265625 10.261719 -3.308594 10.261719 -3.394531 C 10.261719 -3.519531 10.179688 -3.644531 10.050781 -3.644531 C 9.96875 -3.644531 9.925781 -3.644531 9.886719 -3.601562 C 5.90625 -0.835938 1.589844 1.382812 0.25 1.382812 C -0.460938 1.382812 -0.671875 1.214844 -0.671875 0.628906 C -0.671875 -0.210938 -0.125 -1.507812 0.835938 -3.015625 C 7.957031 -7.328125 20.398438 -18.21875 20.398438 -20.648438 C 20.398438 -21.195312 20.0625 -21.488281 19.476562 -21.488281 C 15.957031 -21.488281 -1.132812 -4.3125 -1.132812 0.628906 C -1.132812 1.464844 -0.710938 1.84375 0.25 1.84375 Z M 1.464844 -3.9375 C 6.074219 -10.722656 16.878906 -21.027344 19.476562 -21.027344 C 19.8125 -21.027344 19.9375 -20.902344 19.9375 -20.648438 C 19.9375 -18.640625 8.878906 -8.710938 1.464844 -3.9375 Z M 1.464844 -3.9375 "/></g></g></g><g fill="#737373" fill-opacity="1"><g transform="translate(274.111911, 199.115312)"><g><path d="M -0.167969 2.011719 C 1.214844 2.011719 3.015625 0.542969 3.851562 -0.671875 L 3.980469 -0.753906 C 5.066406 -1.089844 6.410156 -1.507812 7.832031 -1.925781 C 9.257812 -2.34375 10.765625 -2.765625 12.019531 -3.183594 C 12.148438 -3.226562 12.1875 -3.308594 12.1875 -3.433594 C 12.1875 -3.558594 12.105469 -3.644531 11.980469 -3.644531 L 11.894531 -3.644531 C 10.640625 -3.226562 9.132812 -2.804688 7.707031 -2.386719 C 6.535156 -2.050781 5.363281 -1.675781 4.355469 -1.382812 C 4.3125 -1.339844 4.273438 -1.382812 4.273438 -1.464844 C 4.3125 -1.550781 4.3125 -1.632812 4.355469 -1.675781 C 4.355469 -2.09375 4.0625 -2.261719 3.558594 -2.261719 C 3.226562 -2.261719 2.804688 -2.179688 2.34375 -2.09375 C 1.886719 -2.011719 1.382812 -1.925781 1.003906 -1.925781 C 0.628906 -1.925781 0.503906 -2.011719 0.503906 -2.136719 C 0.503906 -3.097656 2.679688 -4.773438 3.9375 -4.773438 C 4.148438 -4.773438 4.1875 -4.691406 4.1875 -4.566406 C 4.1875 -4.273438 3.8125 -3.8125 3.519531 -3.644531 C 3.433594 -3.601562 3.394531 -3.519531 3.394531 -3.433594 C 3.394531 -3.265625 3.519531 -3.183594 3.644531 -3.183594 C 3.6875 -3.183594 3.726562 -3.183594 3.769531 -3.226562 C 4.148438 -3.433594 4.523438 -3.9375 4.648438 -4.441406 C 4.691406 -4.480469 4.691406 -4.566406 4.691406 -4.605469 C 4.691406 -4.984375 4.398438 -5.234375 3.9375 -5.234375 C 2.429688 -5.234375 0 -3.351562 0 -2.136719 C 0 -1.675781 0.378906 -1.464844 1.003906 -1.464844 C 1.425781 -1.464844 1.925781 -1.550781 2.429688 -1.632812 C 2.765625 -1.675781 3.8125 -1.84375 3.851562 -1.71875 C 3.9375 -1.589844 3.769531 -1.382812 3.644531 -1.171875 C 3.644531 -1.132812 3.601562 -1.132812 3.558594 -1.132812 C 1.886719 -0.503906 -0.878906 0.671875 -0.878906 1.464844 C -0.878906 1.84375 -0.628906 2.011719 -0.167969 2.011719 Z M -0.167969 1.507812 C -0.378906 1.507812 -0.417969 1.507812 -0.417969 1.425781 C -0.417969 1.214844 1.046875 0.378906 2.804688 -0.335938 C 2.933594 -0.335938 2.972656 -0.292969 2.890625 -0.210938 C 2.050781 0.671875 0.796875 1.507812 -0.167969 1.507812 Z M -0.167969 1.507812 "/></g></g></g><g fill="#737373" fill-opacity="1"><g transform="translate(140.52882, 200.382446)"><g><path d="M 1.078125 0.046875 C 0.972656 0.046875 0.890625 0.0078125 0.828125 -0.0625 C 0.773438 -0.132812 0.75 -0.226562 0.75 -0.34375 C 0.757812 -0.519531 0.796875 -0.625 0.859375 -0.65625 C 0.921875 -0.695312 1.035156 -0.71875 1.203125 -0.71875 C 1.546875 -0.71875 1.800781 -0.78125 1.96875 -0.90625 C 2.144531 -1.03125 2.253906 -1.1875 2.296875 -1.375 C 2.335938 -1.5625 2.363281 -1.804688 2.375 -2.109375 L 2.375 -9.234375 C 2.363281 -9.535156 2.335938 -9.773438 2.296875 -9.953125 C 2.253906 -10.140625 2.144531 -10.296875 1.96875 -10.421875 C 1.800781 -10.554688 1.546875 -10.625 1.203125 -10.625 L 1.09375 -10.625 C 0.976562 -10.625 0.894531 -10.644531 0.84375 -10.6875 C 0.789062 -10.726562 0.757812 -10.832031 0.75 -11 C 0.75 -11.101562 0.773438 -11.191406 0.828125 -11.265625 C 0.890625 -11.347656 0.972656 -11.390625 1.078125 -11.390625 C 1.859375 -11.359375 2.566406 -11.34375 3.203125 -11.34375 L 5.734375 -11.34375 C 6.390625 -11.34375 6.921875 -11.289062 7.328125 -11.1875 C 7.734375 -11.09375 8.097656 -10.945312 8.421875 -10.75 C 8.734375 -10.539062 8.976562 -10.257812 9.15625 -9.90625 C 9.34375 -9.550781 9.4375 -9.164062 9.4375 -8.75 C 9.4375 -8.007812 9.191406 -7.421875 8.703125 -6.984375 C 8.222656 -6.546875 7.65625 -6.25 7 -6.09375 L 7 -6.03125 C 7.625 -6.03125 8.191406 -5.90625 8.703125 -5.65625 C 9.210938 -5.414062 9.609375 -5.085938 9.890625 -4.671875 C 10.171875 -4.265625 10.3125 -3.820312 10.3125 -3.34375 C 10.3125 -2.53125 10.0625 -1.867188 9.5625 -1.359375 C 9.070312 -0.859375 8.453125 -0.503906 7.703125 -0.296875 C 6.953125 -0.0859375 6.175781 0.015625 5.375 0.015625 L 3.21875 0 C 2.570312 0 1.859375 0.015625 1.078125 0.046875 Z M 4.90625 -6.390625 C 5.382812 -6.390625 5.800781 -6.425781 6.15625 -6.5 C 6.507812 -6.570312 6.820312 -6.765625 7.09375 -7.078125 C 7.375 -7.390625 7.515625 -7.875 7.515625 -8.53125 C 7.515625 -9.957031 6.8125 -10.671875 5.40625 -10.671875 L 4.15625 -10.671875 L 4.15625 -6.390625 Z M 5.4375 -0.703125 C 6.332031 -0.710938 7.046875 -0.929688 7.578125 -1.359375 C 8.109375 -1.785156 8.375 -2.484375 8.375 -3.453125 C 8.3125 -4.097656 8.003906 -4.628906 7.453125 -5.046875 C 6.910156 -5.460938 6.054688 -5.671875 4.890625 -5.671875 L 4.15625 -5.671875 L 4.15625 -2.109375 C 4.15625 -1.691406 4.191406 -1.382812 4.265625 -1.1875 C 4.347656 -0.988281 4.472656 -0.859375 4.640625 -0.796875 C 4.816406 -0.734375 5.082031 -0.703125 5.4375 -0.703125 Z M 5.4375 -0.703125 "/></g></g></g><g fill="#737373" fill-opacity="1"><g transform="translate(153.937094, 200.382446)"><g><path d="M 1.078125 0.046875 C 0.984375 0.046875 0.90625 0.0078125 0.84375 -0.0625 C 0.789062 -0.132812 0.765625 -0.226562 0.765625 -0.34375 C 0.785156 -0.519531 0.820312 -0.625 0.875 -0.65625 C 0.9375 -0.695312 1.050781 -0.71875 1.21875 -0.71875 C 1.570312 -0.71875 1.832031 -0.78125 2 -0.90625 C 2.164062 -1.03125 2.269531 -1.1875 2.3125 -1.375 C 2.351562 -1.5625 2.378906 -1.804688 2.390625 -2.109375 L 2.390625 -9.234375 C 2.378906 -9.535156 2.351562 -9.773438 2.3125 -9.953125 C 2.269531 -10.140625 2.164062 -10.296875 2 -10.421875 C 1.832031 -10.554688 1.570312 -10.625 1.21875 -10.625 L 1.109375 -10.625 C 0.992188 -10.625 0.910156 -10.644531 0.859375 -10.6875 C 0.816406 -10.726562 0.785156 -10.832031 0.765625 -11 C 0.765625 -11.101562 0.789062 -11.191406 0.84375 -11.265625 C 0.90625 -11.347656 0.984375 -11.390625 1.078125 -11.390625 C 1.867188 -11.359375 2.582031 -11.34375 3.21875 -11.34375 C 3.9375 -11.34375 4.6875 -11.359375 5.46875 -11.390625 C 5.570312 -11.390625 5.648438 -11.347656 5.703125 -11.265625 C 5.753906 -11.191406 5.78125 -11.101562 5.78125 -11 C 5.769531 -10.820312 5.726562 -10.710938 5.65625 -10.671875 C 5.59375 -10.640625 5.488281 -10.625 5.34375 -10.625 C 4.988281 -10.625 4.726562 -10.554688 4.5625 -10.421875 C 4.394531 -10.296875 4.289062 -10.140625 4.25 -9.953125 C 4.207031 -9.773438 4.179688 -9.535156 4.171875 -9.234375 L 4.171875 -1.828125 C 4.191406 -1.578125 4.21875 -1.382812 4.25 -1.25 C 4.289062 -1.113281 4.398438 -0.988281 4.578125 -0.875 C 4.753906 -0.757812 5.035156 -0.707031 5.421875 -0.71875 L 7.046875 -0.71875 C 7.460938 -0.726562 7.773438 -0.796875 7.984375 -0.921875 C 8.203125 -1.046875 8.375 -1.238281 8.5 -1.5 C 8.632812 -1.769531 8.789062 -2.203125 8.96875 -2.796875 C 9.050781 -3.015625 9.253906 -3.097656 9.578125 -3.046875 C 9.679688 -3.023438 9.78125 -2.976562 9.875 -2.90625 C 9.976562 -2.832031 10.023438 -2.742188 10.015625 -2.640625 L 9.65625 -0.375 C 9.613281 -0.21875 9.554688 -0.113281 9.484375 -0.0625 C 9.410156 -0.0195312 9.289062 0 9.125 0 L 3.234375 0 C 2.585938 0 1.867188 0.015625 1.078125 0.046875 Z M 1.078125 0.046875 "/></g></g></g><g fill="#737373" fill-opacity="1"><g transform="translate(166.446769, 200.382446)"><g><path d="M 1.078125 0.046875 C 0.972656 0.046875 0.890625 0.0078125 0.828125 -0.0625 C 0.773438 -0.132812 0.75 -0.226562 0.75 -0.34375 C 0.757812 -0.519531 0.796875 -0.625 0.859375 -0.65625 C 0.929688 -0.695312 1.046875 -0.71875 1.203125 -0.71875 C 1.546875 -0.71875 1.800781 -0.78125 1.96875 -0.90625 C 2.144531 -1.03125 2.253906 -1.179688 2.296875 -1.359375 C 2.347656 -1.546875 2.378906 -1.796875 2.390625 -2.109375 L 2.390625 -9.234375 C 2.378906 -9.546875 2.347656 -9.789062 2.296875 -9.96875 C 2.253906 -10.144531 2.144531 -10.296875 1.96875 -10.421875 C 1.800781 -10.554688 1.546875 -10.625 1.203125 -10.625 L 1.09375 -10.625 C 0.988281 -10.625 0.90625 -10.644531 0.84375 -10.6875 C 0.789062 -10.726562 0.757812 -10.832031 0.75 -11 C 0.75 -11.101562 0.773438 -11.191406 0.828125 -11.265625 C 0.890625 -11.347656 0.972656 -11.390625 1.078125 -11.390625 C 1.859375 -11.359375 2.570312 -11.34375 3.21875 -11.34375 C 3.9375 -11.34375 4.6875 -11.359375 5.46875 -11.390625 C 5.570312 -11.390625 5.648438 -11.347656 5.703125 -11.265625 C 5.753906 -11.191406 5.78125 -11.101562 5.78125 -11 C 5.769531 -10.820312 5.726562 -10.710938 5.65625 -10.671875 C 5.59375 -10.640625 5.476562 -10.625 5.3125 -10.625 C 4.96875 -10.625 4.710938 -10.554688 4.546875 -10.421875 C 4.378906 -10.296875 4.273438 -10.140625 4.234375 -9.953125 C 4.191406 -9.773438 4.164062 -9.535156 4.15625 -9.234375 L 4.15625 -2.109375 C 4.164062 -1.804688 4.191406 -1.5625 4.234375 -1.375 C 4.273438 -1.1875 4.378906 -1.03125 4.546875 -0.90625 C 4.710938 -0.78125 4.96875 -0.71875 5.3125 -0.71875 L 5.421875 -0.71875 C 5.546875 -0.71875 5.632812 -0.695312 5.6875 -0.65625 C 5.738281 -0.613281 5.769531 -0.507812 5.78125 -0.34375 C 5.78125 -0.226562 5.753906 -0.132812 5.703125 -0.0625 C 5.648438 0.0078125 5.570312 0.046875 5.46875 0.046875 C 4.695312 0.015625 3.953125 0 3.234375 0 C 2.578125 0 1.859375 0.015625 1.078125 0.046875 Z M 1.078125 0.046875 "/></g></g></g><g fill="#737373" fill-opacity="1"><g transform="translate(175.236284, 200.382446)"><g><path d="M 4.765625 0.359375 C 3.503906 0.359375 2.539062 0.140625 1.875 -0.296875 C 1.207031 -0.734375 0.875 -1.378906 0.875 -2.234375 C 0.875 -2.660156 1.019531 -3.015625 1.3125 -3.296875 C 1.613281 -3.578125 2 -3.71875 2.46875 -3.71875 C 2.738281 -3.707031 2.945312 -3.640625 3.09375 -3.515625 C 3.238281 -3.390625 3.3125 -3.269531 3.3125 -3.15625 C 3.3125 -3.144531 3.25 -3.101562 3.125 -3.03125 C 3.007812 -2.957031 2.898438 -2.847656 2.796875 -2.703125 C 2.703125 -2.566406 2.65625 -2.375 2.65625 -2.125 C 2.65625 -1.5625 2.828125 -1.125 3.171875 -0.8125 C 3.515625 -0.507812 4.046875 -0.359375 4.765625 -0.359375 C 5.253906 -0.359375 5.679688 -0.453125 6.046875 -0.640625 C 6.421875 -0.835938 6.707031 -1.09375 6.90625 -1.40625 C 7.101562 -1.726562 7.203125 -2.0625 7.203125 -2.40625 C 7.203125 -2.832031 7.078125 -3.203125 6.828125 -3.515625 C 6.585938 -3.828125 6.285156 -4.085938 5.921875 -4.296875 C 5.566406 -4.515625 5.078125 -4.757812 4.453125 -5.03125 C 3.734375 -5.351562 3.148438 -5.644531 2.703125 -5.90625 C 2.265625 -6.175781 1.890625 -6.53125 1.578125 -6.96875 C 1.265625 -7.40625 1.109375 -7.945312 1.109375 -8.59375 C 1.109375 -9.632812 1.460938 -10.410156 2.171875 -10.921875 C 2.890625 -11.441406 3.832031 -11.703125 5 -11.703125 C 5.90625 -11.703125 6.695312 -11.507812 7.375 -11.125 C 8.050781 -10.738281 8.390625 -10.175781 8.390625 -9.4375 C 8.390625 -9 8.242188 -8.640625 7.953125 -8.359375 C 7.660156 -8.078125 7.28125 -7.9375 6.8125 -7.9375 C 6.53125 -7.945312 6.316406 -8.015625 6.171875 -8.140625 C 6.035156 -8.273438 5.96875 -8.394531 5.96875 -8.5 C 5.96875 -8.507812 6.046875 -8.550781 6.203125 -8.625 C 6.367188 -8.695312 6.515625 -8.800781 6.640625 -8.9375 C 6.765625 -9.082031 6.828125 -9.285156 6.828125 -9.546875 C 6.828125 -9.984375 6.65625 -10.328125 6.3125 -10.578125 C 5.96875 -10.828125 5.535156 -10.953125 5.015625 -10.953125 C 4.285156 -10.953125 3.726562 -10.78125 3.34375 -10.4375 C 2.96875 -10.101562 2.78125 -9.6875 2.78125 -9.1875 C 2.78125 -8.757812 2.894531 -8.40625 3.125 -8.125 C 3.351562 -7.84375 3.71875 -7.566406 4.21875 -7.296875 C 4.625 -7.078125 5.066406 -6.859375 5.546875 -6.640625 C 6.316406 -6.296875 6.925781 -5.976562 7.375 -5.6875 C 7.820312 -5.40625 8.195312 -5.03125 8.5 -4.5625 C 8.8125 -4.09375 8.96875 -3.515625 8.96875 -2.828125 C 8.96875 -2.222656 8.773438 -1.675781 8.390625 -1.1875 C 8.015625 -0.707031 7.503906 -0.328125 6.859375 -0.046875 C 6.222656 0.222656 5.523438 0.359375 4.765625 0.359375 Z M 4.765625 0.359375 "/></g></g></g><g fill="#737373" fill-opacity="1"><g transform="translate(187.278694, 200.382446)"><g><path d="M 4.765625 0.359375 C 3.503906 0.359375 2.539062 0.140625 1.875 -0.296875 C 1.207031 -0.734375 0.875 -1.378906 0.875 -2.234375 C 0.875 -2.660156 1.019531 -3.015625 1.3125 -3.296875 C 1.613281 -3.578125 2 -3.71875 2.46875 -3.71875 C 2.738281 -3.707031 2.945312 -3.640625 3.09375 -3.515625 C 3.238281 -3.390625 3.3125 -3.269531 3.3125 -3.15625 C 3.3125 -3.144531 3.25 -3.101562 3.125 -3.03125 C 3.007812 -2.957031 2.898438 -2.847656 2.796875 -2.703125 C 2.703125 -2.566406 2.65625 -2.375 2.65625 -2.125 C 2.65625 -1.5625 2.828125 -1.125 3.171875 -0.8125 C 3.515625 -0.507812 4.046875 -0.359375 4.765625 -0.359375 C 5.253906 -0.359375 5.679688 -0.453125 6.046875 -0.640625 C 6.421875 -0.835938 6.707031 -1.09375 6.90625 -1.40625 C 7.101562 -1.726562 7.203125 -2.0625 7.203125 -2.40625 C 7.203125 -2.832031 7.078125 -3.203125 6.828125 -3.515625 C 6.585938 -3.828125 6.285156 -4.085938 5.921875 -4.296875 C 5.566406 -4.515625 5.078125 -4.757812 4.453125 -5.03125 C 3.734375 -5.351562 3.148438 -5.644531 2.703125 -5.90625 C 2.265625 -6.175781 1.890625 -6.53125 1.578125 -6.96875 C 1.265625 -7.40625 1.109375 -7.945312 1.109375 -8.59375 C 1.109375 -9.632812 1.460938 -10.410156 2.171875 -10.921875 C 2.890625 -11.441406 3.832031 -11.703125 5 -11.703125 C 5.90625 -11.703125 6.695312 -11.507812 7.375 -11.125 C 8.050781 -10.738281 8.390625 -10.175781 8.390625 -9.4375 C 8.390625 -9 8.242188 -8.640625 7.953125 -8.359375 C 7.660156 -8.078125 7.28125 -7.9375 6.8125 -7.9375 C 6.53125 -7.945312 6.316406 -8.015625 6.171875 -8.140625 C 6.035156 -8.273438 5.96875 -8.394531 5.96875 -8.5 C 5.96875 -8.507812 6.046875 -8.550781 6.203125 -8.625 C 6.367188 -8.695312 6.515625 -8.800781 6.640625 -8.9375 C 6.765625 -9.082031 6.828125 -9.285156 6.828125 -9.546875 C 6.828125 -9.984375 6.65625 -10.328125 6.3125 -10.578125 C 5.96875 -10.828125 5.535156 -10.953125 5.015625 -10.953125 C 4.285156 -10.953125 3.726562 -10.78125 3.34375 -10.4375 C 2.96875 -10.101562 2.78125 -9.6875 2.78125 -9.1875 C 2.78125 -8.757812 2.894531 -8.40625 3.125 -8.125 C 3.351562 -7.84375 3.71875 -7.566406 4.21875 -7.296875 C 4.625 -7.078125 5.066406 -6.859375 5.546875 -6.640625 C 6.316406 -6.296875 6.925781 -5.976562 7.375 -5.6875 C 7.820312 -5.40625 8.195312 -5.03125 8.5 -4.5625 C 8.8125 -4.09375 8.96875 -3.515625 8.96875 -2.828125 C 8.96875 -2.222656 8.773438 -1.675781 8.390625 -1.1875 C 8.015625 -0.707031 7.503906 -0.328125 6.859375 -0.046875 C 6.222656 0.222656 5.523438 0.359375 4.765625 0.359375 Z M 4.765625 0.359375 "/></g></g></g><g fill="#737373" fill-opacity="1"><g transform="translate(199.3081, 200.382446)"><g/></g></g></svg>